<svg width="80" height="64" viewBox="0 0 80 64" fill="none" xmlns="http://www.w3.org/2000/svg">
<path d="M73.5586 0.572092C76.7754 0.572092 79.4973 3.29399 79.4973 6.51079V57.9795C79.4973 61.32 76.7754 63.9182 73.5586 63.9182H49.8038C51.041 62.3098 51.7834 60.2065 51.7834 57.9795V44.1225H53.7629C54.7527 44.1225 55.7425 43.2565 55.7425 42.143V38.1838C55.7425 37.1941 54.7527 36.2043 53.7629 36.2043H51.7834V34.9671C51.7834 33.9773 51.6596 33.1112 51.4122 32.2451H53.7629C54.7527 32.2451 55.7425 31.3791 55.7425 30.2656V26.3064C55.7425 25.3167 54.7527 24.3269 53.7629 24.3269H49.8038C48.6903 24.3269 47.8242 25.3167 47.8242 26.3064V26.9251L39.906 19.6254V6.51079C39.906 3.29399 42.5041 0.572092 45.8447 0.572092H73.5586ZM63.6607 30.2656C63.6607 31.3791 64.5268 32.2451 65.6403 32.2451H69.5994C70.5892 32.2451 71.579 31.3791 71.579 30.2656V26.3064C71.579 25.3167 70.5892 24.3269 69.5994 24.3269H65.6403C64.5268 24.3269 63.6607 25.3167 63.6607 26.3064V30.2656ZM65.6403 36.2043C64.5268 36.2043 63.6607 37.1941 63.6607 38.1838V42.143C63.6607 43.2565 64.5268 44.1225 65.6403 44.1225H69.5994C70.5892 44.1225 71.579 43.2565 71.579 42.143V38.1838C71.579 37.1941 70.5892 36.2043 69.5994 36.2043H65.6403ZM49.8038 12.4495C48.6903 12.4495 47.8242 13.4393 47.8242 14.4291V18.3882C47.8242 19.5017 48.6903 20.3678 49.8038 20.3678H53.7629C54.7527 20.3678 55.7425 19.5017 55.7425 18.3882V14.4291C55.7425 13.4393 54.7527 12.4495 53.7629 12.4495H49.8038ZM63.6607 18.3882C63.6607 19.5017 64.5268 20.3678 65.6403 20.3678H69.5994C70.5892 20.3678 71.579 19.5017 71.579 18.3882V14.4291C71.579 13.4393 70.5892 12.4495 69.5994 12.4495H65.6403C64.5268 12.4495 63.6607 13.4393 63.6607 14.4291V18.3882ZM2.17048 30.513L19.9866 14.1816C22.2136 12.0783 25.8015 12.0783 28.0286 14.1816L45.8447 30.513C47.0819 31.6265 47.8242 33.2349 47.8242 34.9671V57.9795C47.8242 61.32 45.1023 63.9182 41.8855 63.9182H6.25333C2.91282 63.9182 0.314636 61.32 0.314636 57.9795V34.9671C0.314636 33.2349 0.933251 31.6265 2.17048 30.513ZM18.1307 43.1328C18.1307 44.8649 19.368 46.1021 21.1001 46.1021H27.0388C28.6472 46.1021 30.0081 44.8649 30.0081 43.1328V37.1941C30.0081 35.5857 28.6472 34.2247 27.0388 34.2247H21.1001C19.368 34.2247 18.1307 35.5857 18.1307 37.1941V43.1328Z" fill="#DB3B31"/>
</svg>
